# xmcd CD database file
#
# Track frame offsets:
#	150
#	16255
#	35935
#	51454
#	64456
#	80255
#	94655
#	103543
#	116483
#	130543
#	153060
#	163588
#	192873
#	208265
#	220300
#	237850
#	254840
#	268915
#	285121
#	300546
#
# Disc length: 4240 seconds
#
# Revision: 0
# Processed by: cddbd v1.5.1PL0 Copyright (c) Steve Scherf et al.
# Submitted via: CDex 1.40Beta9
#
DISCID=1d108e14
DTITLE=Various Artist - In The Morning [CD1]
DYEAR=1900
DGENRE=ポップ (一般)
TTITLE0=Life
TTITLE1=What A Fool Believes
TTITLE2=Breathless
TTITLE3=Daydream Believer
TTITLE4=Have You Never Been Mellow(そよ風の誘惑)
TTITLE5=Dans Nos Reves(わたしたちの夢)
TTITLE6=It's Not Unusual(よくあることさ)
TTITLE7=You Can't Hurry Love(恋はあせらず)
TTITLE8=Veronica
TTITLE9=Third Time Lucky
TTITLE10=BRAZIL(Aquarela Do Brasil)
TTITLE11=Your Song
TTITLE12=Long Train Running'
TTITLE13=A Thousand Times
TTITLE14=Sunchyme
TTITLE15=Don't Get Me Wrong
TTITLE16=I'm In The Mood For Dancing
TTITLE17=Venus
TTITLE18=Mickey
TTITLE19=Wake Me Up Before You Go Go
EXTD=
EXTT0=
EXTT1=
EXTT2=
EXTT3=
EXTT4=
EXTT5=
EXTT6=
EXTT7=
EXTT8=
EXTT9=
EXTT10=
EXTT11=
EXTT12=
EXTT13=
EXTT14=
EXTT15=
EXTT16=
EXTT17=
EXTT18=
EXTT19=
PLAYORDER=
